<?xml version="1.0" standalone="no"?>
<!DOCTYPE svg PUBLIC "-//W3C//DTD SVG 20010904//EN"
 "http://www.w3.org/TR/2001/REC-SVG-20010904/DTD/svg10.dtd">
<svg version="1.0" xmlns="http://www.w3.org/2000/svg"
 width="256.000000pt" height="256.000000pt" viewBox="0 0 256.000000 256.000000"
 preserveAspectRatio="xMidYMid meet">
<metadata>
Created by potrace 1.11, written by Peter Selinger 2001-2013
</metadata>
<g transform="translate(0.000000,256.000000) scale(0.100000,-0.100000)"
fill="#000000" stroke="none">
<path d="M1487 2554 c-1 -1 -24 -4 -52 -7 -149 -17 -320 -118 -425 -254 -23
-29 -30 -31 -103 -37 -204 -14 -368 -125 -455 -307 l-37 -77 -65 -17 c-145
-37 -245 -119 -307 -253 -37 -80 -47 -168 -30 -266 19 -108 108 -233 207 -289
109 -63 53 -59 1000 -61 647 -2 876 1 908 10 23 7 42 11 42 9 0 -2 35 14 78
35 281 137 388 475 237 745 -65 116 -200 227 -303 250 -30 6 -44 30 -57 95 0
3 -13 31 -27 62 -97 209 -312 349 -556 362 -29 1 -53 2 -55 0z m138 -208 c59
-11 154 -65 208 -120 66 -65 110 -152 126 -246 20 -114 13 -105 91 -118 39 -7
92 -23 118 -36 256 -132 248 -484 -13 -616 l-50 -25 -865 0 -865 0 -40 22
c-49 26 -87 65 -113 118 -25 51 -24 154 2 205 56 108 154 152 294 132 43 -6
62 -5 63 2 0 6 2 18 4 26 1 8 8 41 14 72 23 125 95 223 199 271 38 18 65 22
137 21 50 0 105 -3 122 -6 32 -6 34 -4 70 60 105 189 287 276 498 238z"/>
<path d="M2133 841 c-62 -32 -113 -56 -113 -54 0 2 -26 -16 -59 -41 -95 -74
-118 -169 -62 -258 34 -53 72 -77 136 -85 56 -6 103 9 147 50 60 55 70 91 73
261 1 83 -1 159 -4 168 -5 14 -22 8 -118 -41z"/>
<path d="M444 734 c-195 -96 -252 -158 -242 -264 10 -96 83 -164 179 -164 32
0 70 6 85 14 42 22 93 80 105 120 14 44 24 346 12 353 -4 3 -67 -24 -139 -59z"/>
<path d="M1197 672 c-13 -15 -17 -39 -17 -112 l0 -93 -69 66 c-65 63 -91 76
-117 59 -11 -7 -18 -33 -15 -59 0 -6 29 -39 62 -72 34 -34 56 -61 48 -62 -8
-1 -48 -2 -91 -3 -82 -2 -108 -14 -108 -51 0 -38 26 -49 119 -51 47 -1 88 -2
90 -3 2 0 -23 -28 -55 -61 -75 -77 -79 -85 -60 -116 25 -37 52 -29 120 36 35
33 66 60 69 60 4 0 7 -40 7 -89 0 -92 7 -109 47 -116 38 -6 50 21 52 113 1 47
4 88 6 91 3 2 33 -24 67 -57 64 -65 93 -75 122 -46 26 26 19 43 -51 115 -51
53 -62 69 -47 70 188 8 194 10 194 54 0 39 -14 46 -101 50 -46 2 -91 4 -99 4
-8 1 11 27 46 64 71 72 81 93 58 118 -29 32 -56 22 -126 -47 l-68 -65 -1 38
c-2 126 -6 165 -20 174 -22 14 -44 11 -62 -9z"/>
</g>
</svg>
